<?xml version="1.0" encoding="utf-8"?>
<!-- Generator: Adobe Illustrator 16.2.1, SVG Export Plug-In . SVG Version: 6.00 Build 0)  -->
<!DOCTYPE svg PUBLIC "-//W3C//DTD SVG 1.1//EN" "http://www.w3.org/Graphics/SVG/1.1/DTD/svg11.dtd">
<svg version="1.1" xmlns="http://www.w3.org/2000/svg" xmlns:xlink="http://www.w3.org/1999/xlink" x="0px" y="0px"
	 width="171.75px" height="49.604px" viewBox="0 0 171.75 49.604" enable-background="new 0 0 171.75 49.604" xml:space="preserve">
<g id="Ebene_1">
	<g>
		<path fill="#00619D" d="M28.133,8.682l-4.051,3.792c-0.847-1.465-1.895-2.56-3.145-3.285c-1.249-0.725-2.557-1.088-3.92-1.088
			c-2.213,0-4.133,0.84-5.763,2.521S8.81,14.283,8.81,16.566c0,2.427,0.815,4.484,2.445,6.172s3.594,2.531,5.892,2.531
			c1.25,0,2.452-0.316,3.607-0.948c1.156-0.632,2.086-1.817,2.791-3.555h-6.7v-5.515h13.054v3.662c0,1.881-0.646,3.903-1.938,6.064
			c-1.293,2.162-2.995,3.741-5.105,4.739c-2.111,0.999-4.244,1.497-6.398,1.497c-3.906,0-7.202-1.414-9.888-4.244
			c-2.686-2.829-4.028-6.326-4.028-10.491c0-3.949,1.383-7.324,4.146-10.125c2.765-2.801,6.093-4.201,9.984-4.201
			C21.641,2.155,25.461,4.331,28.133,8.682z"/>
		<path fill="#00619D" d="M34.573,2.543h6.054v22.188h8.336v6.096h-14.39V2.543z"/>
		<path fill="#00619D" d="M63.091,2.543h4.723l11.523,28.284h-6.135l-2.264-5.558H60.083l-2.217,5.558h-6.103L63.091,2.543z
			 M65.454,11.806l-3.326,8.337h6.723L65.454,11.806z"/>
		<path fill="#00619D" d="M85.654,2.543h7.244l5.298,16.953l5.302-16.953h6.987l3.642,28.284h-5.808l-2.497-19.904l-6.225,19.904
			H96.83L90.441,10.75l-2.357,20.077h-5.903L85.654,2.543z"/>
		<path fill="#00619D" d="M117.638,16.674c0-4.179,1.382-7.629,4.147-10.351c2.764-2.722,6.042-4.083,9.833-4.083
			c4.193,0,7.662,1.368,10.405,4.104c2.742,2.736,4.114,6.193,4.114,10.372c0,4.15-1.357,7.597-4.071,10.34
			c-2.715,2.744-6.133,4.115-10.254,4.115c-4.122,0-7.515-1.364-10.179-4.093S117.638,20.882,117.638,16.674z M131.898,7.885
			c-2.369-0.043-4.279,0.775-5.729,2.456c-1.451,1.681-2.176,3.849-2.176,6.506c0,2.513,0.739,4.596,2.219,6.247
			c1.479,1.651,3.346,2.477,5.601,2.477c2.369,0,4.283-0.815,5.741-2.445c1.457-1.63,2.186-3.781,2.186-6.452
			c0-2.628-0.714-4.739-2.143-6.333C136.167,8.747,134.269,7.928,131.898,7.885z"/>
		<path fill="#00619D" d="M166.215,5.106l-3.791,4.158c-1.997-1.178-3.433-1.767-4.309-1.767c-0.675,0-1.257,0.255-1.745,0.765
			s-0.732,1.116-0.732,1.82c0,1.393,1.264,2.599,3.792,3.619c1.853,0.791,3.252,1.505,4.2,2.144c0.948,0.639,1.741,1.526,2.38,2.661
			c0.64,1.135,0.959,2.362,0.959,3.684c0,2.427-0.98,4.538-2.94,6.333c-1.96,1.795-4.276,2.693-6.947,2.693
			c-2.93,0-5.823-1.378-8.681-4.136l4.006-4.675c1.796,1.853,3.476,2.779,5.041,2.779c0.732,0,1.437-0.326,2.111-0.978
			c0.675-0.651,1.013-1.336,1.013-2.052c0-1.476-1.559-2.776-4.675-3.902c-1.781-0.65-3.045-1.258-3.791-1.825
			c-0.747-0.567-1.376-1.393-1.886-2.478c-0.51-1.084-0.765-2.193-0.765-3.328c0-2.513,0.819-4.552,2.456-6.118
			c1.638-1.565,3.777-2.348,6.42-2.348C161.461,2.155,164.089,3.139,166.215,5.106z"/>
		<path fill="#00619D" d="M6.93,40.166c0.013-0.882-0.133-1.659-1.186-1.659c-1.238,0-1.238,1.672-1.238,3.516
			c0,2.976,0.29,3.503,1.422,3.503c0.33,0,0.686-0.079,0.988-0.185v-2.107h-1.08v-1.461h3.068v4.819
			c-0.54,0.105-1.896,0.316-2.687,0.316c-3.345,0-3.727-1.383-3.727-4.991c0-2.396,0.118-4.833,3.371-4.833
			c1.949,0,3.161,1.093,3.042,3.082H6.93z"/>
		<path fill="#00619D" d="M12.553,37.242v9.507h-1.856v-9.507H12.553z"/>
		<path fill="#00619D" d="M19.242,45.512c0,0.408,0.053,0.83,0.093,1.238h-1.726l-0.078-0.882h-0.027
			c-0.395,0.685-0.934,1.014-1.737,1.014c-1.29,0-1.765-0.961-1.765-2.12c0-2.199,1.699-2.292,3.424-2.265v-0.514
			c0-0.566-0.079-0.974-0.751-0.974c-0.646,0-0.698,0.487-0.698,1.014H14.16c0-0.803,0.25-1.317,0.685-1.62
			c0.421-0.316,1.026-0.435,1.738-0.435c2.356,0,2.659,1.014,2.659,2.226V45.512z M15.818,44.682c0,0.474,0.08,1.053,0.686,1.053
			c1.093,0,0.922-1.475,0.922-2.199C16.504,43.576,15.818,43.497,15.818,44.682z"/>
		<path fill="#00619D" d="M24.168,42.47c0-0.988-0.25-1.317-0.829-1.317c-0.79,0-0.856,0.698-0.856,2.081
			c0,2.028,0.172,2.462,0.856,2.462c0.579,0,0.856-0.526,0.856-1.396h1.856c0,1.804-0.975,2.581-2.713,2.581
			c-2.396,0-2.712-1.462-2.712-3.542c0-1.817,0.263-3.371,2.712-3.371c1.712,0,2.687,0.764,2.687,2.502H24.168z"/>
		<path fill="#00619D" d="M29.384,37.242v1.461h-1.856v-1.461H29.384z M29.384,46.75h-1.856V40.1h1.856V46.75z"/>
		<path fill="#00619D" d="M32.742,43.721c0,0.79,0.026,1.975,0.843,1.975c0.659,0,0.79-0.632,0.79-1.185h1.883
			c-0.025,0.725-0.264,1.317-0.711,1.725c-0.434,0.408-1.093,0.646-1.962,0.646c-2.396,0-2.712-1.462-2.712-3.542
			c0-1.817,0.263-3.371,2.712-3.371c2.502,0,2.778,1.62,2.713,3.753H32.742z M34.441,42.681c0-0.646,0.025-1.567-0.856-1.567
			c-0.856,0-0.843,1.001-0.843,1.567H34.441z"/>
		<path fill="#00619D" d="M39.38,40.1v0.856h0.026c0.342-0.764,0.975-0.988,1.725-0.988v1.659c-1.633-0.105-1.658,0.843-1.658,1.501
			v3.621h-1.857V40.1H39.38z"/>
		<path fill="#00619D" d="M44.977,46.75v-9.507h3.201l1.487,6.465h0.026l1.58-6.465h3.095v9.507H52.43v-7.335h-0.025l-1.83,7.335
			h-1.896l-1.738-7.335h-0.026v7.335H44.977z"/>
		<path fill="#00619D" d="M55.737,43.339c0-1.817,0.264-3.371,2.713-3.371s2.712,1.554,2.712,3.371c0,2.081-0.315,3.542-2.712,3.542
			C56.053,46.881,55.737,45.419,55.737,43.339z M59.306,43.233c0-1.382-0.065-2.081-0.855-2.081s-0.856,0.698-0.856,2.081
			c0,2.028,0.171,2.462,0.856,2.462C59.135,45.696,59.306,45.262,59.306,43.233z"/>
		<path fill="#00619D" d="M64.337,40.771h0.026c0.369-0.592,0.869-0.803,1.567-0.803c0.882,0,1.659,0.527,1.659,1.449v5.333h-1.856
			v-4.583c0-0.593-0.105-1.054-0.698-1.054s-0.698,0.461-0.698,1.054v4.583H62.48V40.1h1.856V40.771z"/>
		<path fill="#00619D" d="M71.08,37.242v1.461h-1.856v-1.461H71.08z M71.08,46.75h-1.856V40.1h1.856V46.75z"/>
		<path fill="#00619D" d="M71.977,40.1h0.75v-1.054l1.856-0.83V40.1h0.962v1.146h-0.962v3.556c0,0.5-0.013,0.83,0.593,0.83
			c0.119,0,0.237,0,0.329-0.026v1.146c-0.25,0.026-0.514,0.066-0.961,0.066c-1.606,0-1.817-1.067-1.817-1.475v-4.095h-0.75V40.1z"/>
		<path fill="#00619D" d="M76.229,43.339c0-1.817,0.264-3.371,2.713-3.371s2.713,1.554,2.713,3.371c0,2.081-0.316,3.542-2.713,3.542
			S76.229,45.419,76.229,43.339z M79.799,43.233c0-1.382-0.066-2.081-0.856-2.081s-0.855,0.698-0.855,2.081
			c0,2.028,0.171,2.462,0.855,2.462S79.799,45.262,79.799,43.233z"/>
		<path fill="#00619D" d="M84.737,40.1v0.856h0.026c0.343-0.764,0.975-0.988,1.725-0.988v1.659
			c-1.633-0.105-1.659,0.843-1.659,1.501v3.621h-1.856V40.1H84.737z"/>
		<path fill="#00619D" d="M89.373,37.242v1.461h-1.856v-1.461H89.373z M89.373,46.75h-1.856V40.1h1.856V46.75z"/>
		<path fill="#00619D" d="M92.876,40.771h0.026c0.369-0.592,0.869-0.803,1.567-0.803c0.882,0,1.659,0.527,1.659,1.449v5.333h-1.856
			v-4.583c0-0.593-0.105-1.054-0.698-1.054s-0.698,0.461-0.698,1.054v4.583H91.02V40.1h1.856V40.771z"/>
		<path fill="#00619D" d="M102.688,40.1v6.926c0,0.461,0.026,2.278-2.528,2.278c-1.383,0-2.567-0.355-2.607-1.975h1.817
			c0,0.276,0.039,0.513,0.158,0.671c0.118,0.171,0.329,0.263,0.619,0.263c0.461,0,0.685-0.435,0.685-1.106V45.88h-0.026
			c-0.276,0.514-0.804,0.777-1.409,0.777c-2.041,0-1.949-1.87-1.949-3.371c0-1.461,0.026-3.318,1.962-3.318
			c0.659,0,1.226,0.29,1.488,0.909h0.026V40.1H102.688z M100.067,45.512c0.671,0,0.764-0.698,0.764-2.107
			c0-1.462-0.066-2.292-0.751-2.292c-0.697,0-0.816,0.487-0.816,2.515C99.264,44.248,99.172,45.512,100.067,45.512z"/>
		<path fill="#00619D" d="M109.786,46.908c-2.462,0-2.923-1.449-2.817-3.095h1.988c0,0.909,0.039,1.672,1.133,1.672
			c0.671,0,1-0.435,1-1.08c0-1.712-4.003-1.817-4.003-4.648c0-1.488,0.711-2.673,3.134-2.673c1.937,0,2.897,0.869,2.766,2.857
			h-1.936c0-0.711-0.118-1.435-0.922-1.435c-0.646,0-1.027,0.355-1.027,1.014c0,1.804,4.004,1.646,4.004,4.635
			C113.105,46.618,111.301,46.908,109.786,46.908z"/>
		<path fill="#00619D" d="M113.843,40.1h1.844l0.909,5.004h0.026l1.277-5.004h1.922l1.172,5.004h0.026l1.001-5.004h1.778
			l-1.805,6.65h-1.949l-1.198-4.543h-0.026l-1.343,4.543h-1.976L113.843,40.1z"/>
		<path fill="#00619D" d="M126.696,37.242v1.461h-1.856v-1.461H126.696z M126.696,46.75h-1.856V40.1h1.856V46.75z"/>
		<path fill="#00619D" d="M127.593,40.1h0.75v-1.054l1.856-0.83V40.1h0.962v1.146h-0.962v3.556c0,0.5-0.013,0.83,0.593,0.83
			c0.119,0,0.237,0,0.329-0.026v1.146c-0.25,0.026-0.514,0.066-0.961,0.066c-1.606,0-1.817-1.067-1.817-1.475v-4.095h-0.75V40.1z"/>
		<path fill="#00619D" d="M136.047,41.417l-2.647,4.148h2.687v1.185h-4.517v-1.317l2.607-4.148h-2.515V40.1h4.385V41.417z"/>
		<path fill="#00619D" d="M138.839,43.721c0,0.79,0.026,1.975,0.843,1.975c0.658,0,0.79-0.632,0.79-1.185h1.883
			c-0.026,0.725-0.263,1.317-0.711,1.725c-0.435,0.408-1.093,0.646-1.962,0.646c-2.396,0-2.713-1.462-2.713-3.542
			c0-1.817,0.264-3.371,2.713-3.371c2.502,0,2.778,1.62,2.713,3.753H138.839z M140.538,42.681c0-0.646,0.026-1.567-0.856-1.567
			c-0.855,0-0.843,1.001-0.843,1.567H140.538z"/>
		<path fill="#00619D" d="M145.477,40.1v0.856h0.026c0.343-0.764,0.975-0.988,1.725-0.988v1.659
			c-1.633-0.105-1.659,0.843-1.659,1.501v3.621h-1.856V40.1H145.477z"/>
		<path fill="#00619D" d="M150.112,37.242v9.507h-1.856v-9.507H150.112z"/>
		<path fill="#00619D" d="M156.803,45.512c0,0.408,0.053,0.83,0.092,1.238h-1.725l-0.079-0.882h-0.026
			c-0.396,0.685-0.936,1.014-1.738,1.014c-1.291,0-1.765-0.961-1.765-2.12c0-2.199,1.698-2.292,3.424-2.265v-0.514
			c0-0.566-0.079-0.974-0.751-0.974c-0.646,0-0.697,0.487-0.697,1.014h-1.817c0-0.803,0.25-1.317,0.685-1.62
			c0.421-0.316,1.027-0.435,1.738-0.435c2.356,0,2.66,1.014,2.66,2.226V45.512z M153.379,44.682c0,0.474,0.079,1.053,0.685,1.053
			c1.093,0,0.922-1.475,0.922-2.199C154.063,43.576,153.379,43.497,153.379,44.682z"/>
		<path fill="#00619D" d="M160.2,40.771h0.026c0.369-0.592,0.869-0.803,1.567-0.803c0.882,0,1.659,0.527,1.659,1.449v5.333h-1.856
			v-4.583c0-0.593-0.105-1.054-0.698-1.054s-0.698,0.461-0.698,1.054v4.583h-1.856V40.1h1.856V40.771z"/>
		<path fill="#00619D" d="M168.247,46.75v-0.737h-0.026c-0.342,0.645-0.855,0.869-1.566,0.869c-1.923,0-1.857-2.133-1.857-3.503
			c0-1.343-0.053-3.411,1.817-3.411c0.672,0,1.133,0.198,1.515,0.764h0.026v-3.489h1.856v9.507H168.247z M168.155,43.365
			c0-1.33,0.013-2.252-0.751-2.252c-0.803,0-0.79,0.922-0.79,2.252c0,1.672,0.118,2.37,0.79,2.37
			C168.036,45.735,168.155,45.038,168.155,43.365z"/>
	</g>
	<g>
		<g>
			<path fill="#00619D" d="M118.475,16.58c0-3.949,1.306-7.209,3.917-9.781c2.613-2.572,5.713-3.857,9.296-3.857
				c3.963,0,7.237,1.292,9.832,3.877c2.593,2.584,3.887,5.851,3.887,9.802c0,3.921-1.281,7.178-3.849,9.77
				c-2.562,2.592-5.793,3.888-9.688,3.888c-3.896,0-7.103-1.289-9.62-3.867C119.734,23.834,118.475,20.556,118.475,16.58z"/>
		</g>
	</g>
</g>
<g id="Ebene_2">
	<rect x="128.873" y="7.094" fill="#FFFFFF" width="6.135" height="19.055"/>
	<rect x="122.413" y="13.554" fill="#FFFFFF" width="19.054" height="6.134"/>
</g>
</svg>
