<?xml version="1.0" encoding="utf-8"?>
<!-- Generator: Adobe Illustrator 16.2.1, SVG Export Plug-In . SVG Version: 6.00 Build 0)  -->
<!DOCTYPE svg PUBLIC "-//W3C//DTD SVG 1.1//EN" "http://www.w3.org/Graphics/SVG/1.1/DTD/svg11.dtd">
<svg version="1.1" xmlns="http://www.w3.org/2000/svg" xmlns:xlink="http://www.w3.org/1999/xlink" x="0px" y="0px"
	 width="245.137px" height="52.25px" viewBox="0 0 245.137 52.25" enable-background="new 0 0 245.137 52.25" xml:space="preserve">
<g id="Ebene_1">
	<g>
		<path fill="#00619D" d="M100.846,9.937l-4.051,3.791c-0.847-1.465-1.895-2.56-3.145-3.285c-1.249-0.725-2.557-1.088-3.92-1.088
			c-2.213,0-4.133,0.84-5.763,2.521s-2.445,3.662-2.445,5.945c0,2.428,0.815,4.484,2.445,6.172s3.594,2.531,5.892,2.531
			c1.25,0,2.452-0.315,3.607-0.948c1.156-0.632,2.086-1.816,2.791-3.554h-6.7v-5.515h13.054v3.662c0,1.881-0.646,3.902-1.938,6.063
			c-1.293,2.162-2.995,3.741-5.105,4.739c-2.111,0.998-4.244,1.497-6.398,1.497c-3.906,0-7.202-1.414-9.888-4.244
			c-2.686-2.828-4.028-6.325-4.028-10.49c0-3.949,1.383-7.324,4.146-10.125c2.765-2.8,6.093-4.2,9.984-4.2
			C94.354,3.409,98.174,5.585,100.846,9.937z"/>
		<path fill="#00619D" d="M107.286,3.797h6.054v22.188h8.336v6.097h-14.39V3.797z"/>
		<path fill="#00619D" d="M135.804,3.797h4.723l11.523,28.284h-6.135l-2.264-5.558h-10.855l-2.217,5.558h-6.103L135.804,3.797z
			 M138.167,13.06l-3.326,8.337h6.723L138.167,13.06z"/>
		<path fill="#00619D" d="M158.367,3.797h7.244l5.298,16.953l5.302-16.953h6.987l3.642,28.284h-5.808l-2.497-19.904l-6.225,19.904
			h-2.768l-6.389-20.077l-2.357,20.077h-5.903L158.367,3.797z"/>
		<path fill="#E30613" d="M190.351,17.928c0-4.179,1.382-7.629,4.147-10.351c2.764-2.721,6.042-4.082,9.833-4.082
			c4.193,0,7.662,1.368,10.405,4.104c2.742,2.736,4.114,6.193,4.114,10.373c0,4.15-1.357,7.597-4.071,10.34
			c-2.715,2.743-6.133,4.114-10.254,4.114c-4.122,0-7.515-1.364-10.179-4.093S190.351,22.136,190.351,17.928z M204.611,9.14
			c-2.369-0.044-4.279,0.775-5.729,2.455c-1.451,1.681-2.176,3.849-2.176,6.506c0,2.514,0.739,4.596,2.219,6.247
			c1.479,1.651,3.346,2.478,5.601,2.478c2.369,0,4.283-0.815,5.741-2.445c1.457-1.63,2.186-3.78,2.186-6.452
			c0-2.628-0.714-4.738-2.143-6.333C208.88,10.001,206.981,9.183,204.611,9.14z"/>
		<path fill="#00619D" d="M238.928,6.36l-3.791,4.157c-1.997-1.177-3.433-1.767-4.309-1.767c-0.675,0-1.257,0.256-1.745,0.766
			c-0.488,0.509-0.732,1.115-0.732,1.819c0,1.393,1.264,2.599,3.792,3.619c1.853,0.79,3.252,1.505,4.2,2.144
			c0.948,0.64,1.741,1.526,2.38,2.66c0.64,1.135,0.959,2.363,0.959,3.684c0,2.428-0.98,4.539-2.94,6.334s-4.276,2.692-6.947,2.692
			c-2.93,0-5.823-1.379-8.681-4.136l4.006-4.675c1.796,1.853,3.476,2.779,5.041,2.779c0.732,0,1.437-0.326,2.111-0.978
			c0.675-0.652,1.013-1.336,1.013-2.053c0-1.475-1.559-2.775-4.675-3.901c-1.781-0.649-3.045-1.258-3.791-1.825
			c-0.747-0.567-1.376-1.393-1.886-2.478c-0.51-1.084-0.765-2.193-0.765-3.328c0-2.513,0.819-4.553,2.456-6.118
			c1.638-1.564,3.777-2.348,6.42-2.348C234.174,3.409,236.802,4.393,238.928,6.36z"/>
		<path fill="#00619D" d="M79.643,41.419c0.013-0.883-0.133-1.659-1.186-1.659c-1.238,0-1.238,1.672-1.238,3.516
			c0,2.977,0.29,3.503,1.422,3.503c0.33,0,0.686-0.079,0.988-0.185v-2.106h-1.08v-1.462h3.068v4.819
			c-0.54,0.105-1.896,0.316-2.687,0.316c-3.345,0-3.727-1.383-3.727-4.991c0-2.396,0.118-4.833,3.371-4.833
			c1.949,0,3.161,1.094,3.042,3.082H79.643z"/>
		<path fill="#00619D" d="M85.266,38.495v9.508h-1.856v-9.508H85.266z"/>
		<path fill="#00619D" d="M91.955,46.765c0,0.408,0.053,0.83,0.093,1.238h-1.726l-0.078-0.882h-0.027
			c-0.395,0.685-0.934,1.014-1.737,1.014c-1.29,0-1.765-0.962-1.765-2.12c0-2.199,1.699-2.291,3.424-2.265v-0.514
			c0-0.566-0.079-0.975-0.751-0.975c-0.646,0-0.698,0.487-0.698,1.014h-1.816c0-0.803,0.25-1.316,0.685-1.619
			c0.421-0.316,1.026-0.435,1.738-0.435c2.356,0,2.659,1.014,2.659,2.225V46.765z M88.531,45.936c0,0.474,0.08,1.054,0.686,1.054
			c1.093,0,0.922-1.476,0.922-2.199C89.217,44.829,88.531,44.75,88.531,45.936z"/>
		<path fill="#00619D" d="M96.881,43.724c0-0.988-0.25-1.317-0.829-1.317c-0.79,0-0.856,0.698-0.856,2.081
			c0,2.027,0.172,2.462,0.856,2.462c0.579,0,0.856-0.526,0.856-1.396h1.856c0,1.804-0.975,2.581-2.713,2.581
			c-2.396,0-2.712-1.462-2.712-3.542c0-1.817,0.263-3.371,2.712-3.371c1.712,0,2.687,0.764,2.687,2.502H96.881z"/>
		<path fill="#00619D" d="M102.097,38.495v1.462h-1.856v-1.462H102.097z M102.097,48.003h-1.856v-6.65h1.856V48.003z"/>
		<path fill="#00619D" d="M105.455,44.975c0,0.79,0.026,1.975,0.843,1.975c0.659,0,0.79-0.632,0.79-1.185h1.883
			c-0.025,0.724-0.264,1.316-0.711,1.725c-0.434,0.408-1.093,0.646-1.962,0.646c-2.396,0-2.712-1.462-2.712-3.542
			c0-1.817,0.263-3.371,2.712-3.371c2.502,0,2.778,1.619,2.713,3.753H105.455z M107.154,43.934c0-0.645,0.025-1.566-0.856-1.566
			c-0.856,0-0.843,1.001-0.843,1.566H107.154z"/>
		<path fill="#00619D" d="M112.093,41.353v0.856h0.026c0.342-0.764,0.975-0.987,1.725-0.987v1.659
			c-1.633-0.105-1.658,0.843-1.658,1.501v3.621h-1.857v-6.65H112.093z"/>
		<path fill="#00619D" d="M117.689,48.003v-9.508h3.201l1.487,6.466h0.026l1.58-6.466h3.095v9.508h-1.937v-7.335h-0.025l-1.83,7.335
			h-1.896l-1.738-7.335h-0.026v7.335H117.689z"/>
		<path fill="#00619D" d="M128.45,44.593c0-1.817,0.264-3.371,2.713-3.371s2.712,1.554,2.712,3.371c0,2.08-0.315,3.542-2.712,3.542
			C128.766,48.135,128.45,46.673,128.45,44.593z M132.019,44.487c0-1.383-0.065-2.081-0.855-2.081s-0.856,0.698-0.856,2.081
			c0,2.027,0.171,2.462,0.856,2.462C131.848,46.949,132.019,46.515,132.019,44.487z"/>
		<path fill="#00619D" d="M137.05,42.024h0.026c0.369-0.593,0.869-0.803,1.567-0.803c0.882,0,1.659,0.526,1.659,1.448v5.333h-1.856
			V43.42c0-0.592-0.105-1.053-0.698-1.053s-0.698,0.461-0.698,1.053v4.583h-1.856v-6.65h1.856V42.024z"/>
		<path fill="#00619D" d="M143.793,38.495v1.462h-1.856v-1.462H143.793z M143.793,48.003h-1.856v-6.65h1.856V48.003z"/>
		<path fill="#00619D" d="M144.689,41.353h0.75V40.3l1.856-0.83v1.883h0.962v1.146h-0.962v3.555c0,0.501-0.013,0.83,0.593,0.83
			c0.119,0,0.237,0,0.329-0.026v1.146c-0.25,0.026-0.514,0.065-0.961,0.065c-1.606,0-1.817-1.066-1.817-1.475v-4.095h-0.75V41.353z"
			/>
		<path fill="#00619D" d="M148.942,44.593c0-1.817,0.264-3.371,2.713-3.371s2.713,1.554,2.713,3.371c0,2.08-0.316,3.542-2.713,3.542
			S148.942,46.673,148.942,44.593z M152.512,44.487c0-1.383-0.066-2.081-0.856-2.081s-0.855,0.698-0.855,2.081
			c0,2.027,0.171,2.462,0.855,2.462S152.512,46.515,152.512,44.487z"/>
		<path fill="#00619D" d="M157.45,41.353v0.856h0.026c0.343-0.764,0.975-0.987,1.725-0.987v1.659
			c-1.633-0.105-1.659,0.843-1.659,1.501v3.621h-1.856v-6.65H157.45z"/>
		<path fill="#00619D" d="M162.086,38.495v1.462h-1.856v-1.462H162.086z M162.086,48.003h-1.856v-6.65h1.856V48.003z"/>
		<path fill="#00619D" d="M165.589,42.024h0.026c0.369-0.593,0.869-0.803,1.567-0.803c0.882,0,1.659,0.526,1.659,1.448v5.333h-1.856
			V43.42c0-0.592-0.105-1.053-0.698-1.053s-0.698,0.461-0.698,1.053v4.583h-1.856v-6.65h1.856V42.024z"/>
		<path fill="#00619D" d="M175.4,41.353v6.927c0,0.461,0.026,2.278-2.528,2.278c-1.383,0-2.567-0.355-2.607-1.976h1.817
			c0,0.276,0.039,0.514,0.158,0.672c0.118,0.171,0.329,0.264,0.619,0.264c0.461,0,0.685-0.435,0.685-1.106v-1.277h-0.026
			c-0.276,0.514-0.804,0.777-1.409,0.777c-2.041,0-1.949-1.87-1.949-3.371c0-1.462,0.026-3.318,1.962-3.318
			c0.659,0,1.226,0.289,1.488,0.908h0.026v-0.777H175.4z M172.78,46.765c0.671,0,0.764-0.697,0.764-2.106
			c0-1.462-0.066-2.291-0.751-2.291c-0.697,0-0.816,0.487-0.816,2.515C171.977,45.501,171.885,46.765,172.78,46.765z"/>
		<path fill="#00619D" d="M182.499,48.161c-2.462,0-2.923-1.448-2.817-3.095h1.988c0,0.908,0.039,1.673,1.133,1.673
			c0.671,0,1-0.435,1-1.08c0-1.712-4.003-1.817-4.003-4.648c0-1.488,0.711-2.674,3.134-2.674c1.937,0,2.897,0.869,2.766,2.858
			h-1.936c0-0.712-0.118-1.436-0.922-1.436c-0.646,0-1.027,0.355-1.027,1.014c0,1.804,4.004,1.646,4.004,4.636
			C185.818,47.871,184.014,48.161,182.499,48.161z"/>
		<path fill="#00619D" d="M186.556,41.353h1.844l0.909,5.004h0.026l1.277-5.004h1.922l1.172,5.004h0.026l1.001-5.004h1.778
			l-1.805,6.65h-1.949l-1.198-4.543h-0.026l-1.343,4.543h-1.976L186.556,41.353z"/>
		<path fill="#00619D" d="M199.409,38.495v1.462h-1.856v-1.462H199.409z M199.409,48.003h-1.856v-6.65h1.856V48.003z"/>
		<path fill="#00619D" d="M200.306,41.353h0.75V40.3l1.856-0.83v1.883h0.962v1.146h-0.962v3.555c0,0.501-0.013,0.83,0.593,0.83
			c0.119,0,0.237,0,0.329-0.026v1.146c-0.25,0.026-0.514,0.065-0.961,0.065c-1.606,0-1.817-1.066-1.817-1.475v-4.095h-0.75V41.353z"
			/>
		<path fill="#00619D" d="M208.76,42.67l-2.647,4.147h2.687v1.186h-4.517v-1.316l2.607-4.148h-2.515v-1.186h4.385V42.67z"/>
		<path fill="#00619D" d="M211.552,44.975c0,0.79,0.026,1.975,0.843,1.975c0.658,0,0.79-0.632,0.79-1.185h1.883
			c-0.026,0.724-0.263,1.316-0.711,1.725c-0.435,0.408-1.093,0.646-1.962,0.646c-2.396,0-2.713-1.462-2.713-3.542
			c0-1.817,0.264-3.371,2.713-3.371c2.502,0,2.778,1.619,2.713,3.753H211.552z M213.251,43.934c0-0.645,0.026-1.566-0.856-1.566
			c-0.855,0-0.843,1.001-0.843,1.566H213.251z"/>
		<path fill="#00619D" d="M218.189,41.353v0.856h0.026c0.343-0.764,0.975-0.987,1.725-0.987v1.659
			c-1.633-0.105-1.659,0.843-1.659,1.501v3.621h-1.856v-6.65H218.189z"/>
		<path fill="#00619D" d="M222.825,38.495v9.508h-1.856v-9.508H222.825z"/>
		<path fill="#00619D" d="M229.516,46.765c0,0.408,0.053,0.83,0.092,1.238h-1.725l-0.079-0.882h-0.026
			c-0.396,0.685-0.936,1.014-1.738,1.014c-1.291,0-1.765-0.962-1.765-2.12c0-2.199,1.698-2.291,3.424-2.265v-0.514
			c0-0.566-0.079-0.975-0.751-0.975c-0.646,0-0.697,0.487-0.697,1.014h-1.817c0-0.803,0.25-1.316,0.685-1.619
			c0.421-0.316,1.027-0.435,1.738-0.435c2.356,0,2.66,1.014,2.66,2.225V46.765z M226.092,45.936c0,0.474,0.079,1.054,0.685,1.054
			c1.093,0,0.922-1.476,0.922-2.199C226.776,44.829,226.092,44.75,226.092,45.936z"/>
		<path fill="#00619D" d="M232.913,42.024h0.026c0.369-0.593,0.869-0.803,1.567-0.803c0.882,0,1.659,0.526,1.659,1.448v5.333h-1.856
			V43.42c0-0.592-0.105-1.053-0.698-1.053s-0.698,0.461-0.698,1.053v4.583h-1.856v-6.65h1.856V42.024z"/>
		<path fill="#00619D" d="M240.96,48.003v-0.737h-0.026c-0.342,0.646-0.855,0.869-1.566,0.869c-1.923,0-1.857-2.134-1.857-3.503
			c0-1.343-0.053-3.41,1.817-3.41c0.672,0,1.133,0.197,1.515,0.764h0.026v-3.49h1.856v9.508H240.96z M240.868,44.619
			c0-1.33,0.013-2.252-0.751-2.252c-0.803,0-0.79,0.922-0.79,2.252c0,1.672,0.118,2.37,0.79,2.37
			C240.749,46.989,240.868,46.291,240.868,44.619z"/>
	</g>
	<g>
		<path fill="#E30613" d="M191.188,17.829c0-3.947,1.306-7.207,3.917-9.779c2.613-2.572,5.713-3.858,9.296-3.858
			c3.963,0,7.237,1.293,9.832,3.879c2.593,2.583,3.887,5.851,3.887,9.8c0,3.922-1.281,7.179-3.849,9.771
			c-2.562,2.592-5.793,3.887-9.688,3.887c-3.896,0-7.103-1.287-9.62-3.866C192.447,25.084,191.188,21.805,191.188,17.829z"/>
	</g>
</g>
<g id="Ebene_2">
	<g>
		<polygon fill="#00619D" points="4.592,48.903 4.317,48.751 2.369,48.751 2.369,48.023 5.988,41.478 9.813,34.365 24.34,24.959 
			26.64,14.912 31.417,12.404 32.227,7.765 37.136,3.176 38.755,4.908 34.426,8.954 33.552,13.961 28.708,16.504 26.436,26.426 
			11.612,36.024 8.069,42.613 4.74,48.635 4.74,48.751 4.676,48.751 		"/>
	</g>
	<g>
		<g>
			<polygon fill="#00619D" points="68.508,37.778 64.119,32.79 63.035,33.271 54.015,26.895 54.015,22.927 49.478,14.265 
				41.75,6.567 36.694,4.282 39.1,6.809 41.023,11.981 42.949,13.784 41.266,15.708 38.859,24.61 39.821,26.654 31.402,40.728 
				32.364,43.733 31.287,47.331 68.571,47.331 			"/>
			<path fill="#00619D" d="M69.765,48.517h-40.07l1.429-4.771l-1.013-3.167l8.369-13.991l-0.878-1.867l2.591-9.587l1.109-1.268
				l-1.292-1.21L38.073,7.45L35.836,5.1l1.347-1.897l5.252,2.374l8.009,7.978l4.757,9.082v3.646l7.97,5.633l1.265-0.561l5.256,5.974
				L69.765,48.517z M32.88,46.146h34.498l-0.053-7.917l-3.521-4.002l-0.903,0.4l-10.071-7.119v-4.29l-4.317-8.242l-7.446-7.417
				L40.559,7.33l1.479,3.977l2.56,2.396l-2.258,2.58L40.117,24.5l1.046,2.221l-8.469,14.156l0.911,2.845L32.88,46.146z"/>
		</g>
	</g>
	<g>
		<g>
			<path fill="#00619D" d="M22.268,13.919H2.031c-0.562,0-1.018-0.456-1.018-1.018s0.455-1.018,1.018-1.018h20.236
				c0.562,0,1.018,0.456,1.018,1.018S22.83,13.919,22.268,13.919z"/>
		</g>
		<g>
			<path fill="#00619D" d="M7.089,22.682c-0.173,0-0.348-0.044-0.508-0.137c-0.487-0.281-0.653-0.903-0.373-1.39L16.327,3.629
				c0.281-0.487,0.903-0.655,1.391-0.373c0.487,0.281,0.653,0.903,0.373,1.39L7.972,22.173C7.783,22.5,7.44,22.682,7.089,22.682z"/>
		</g>
		<g>
			<path fill="#00619D" d="M17.21,22.682c-0.352,0-0.694-0.183-0.883-0.509L6.208,4.646c-0.28-0.487-0.114-1.109,0.373-1.39
				C7.066,2.974,7.69,3.142,7.972,3.629l10.119,17.526c0.28,0.487,0.114,1.109-0.373,1.39C17.558,22.638,17.383,22.682,17.21,22.682
				z"/>
		</g>
		<g>
			<path fill="#00619D" d="M18.971,8.089h-3.445c-0.562,0-1.018-0.456-1.018-1.018s0.455-1.018,1.018-1.018h3.445
				c0.562,0,1.018,0.456,1.018,1.018S19.533,8.089,18.971,8.089z"/>
		</g>
		<g>
			<path fill="#00619D" d="M15.517,8.089c-0.352,0-0.694-0.183-0.883-0.509L12.94,4.646c-0.28-0.487-0.114-1.109,0.373-1.39
				c0.484-0.283,1.109-0.115,1.391,0.373l1.693,2.934c0.28,0.487,0.114,1.109-0.373,1.39C15.864,8.045,15.689,8.089,15.517,8.089z"
				/>
		</g>
		<g>
			<path fill="#00619D" d="M8.774,19.749H5.33c-0.562,0-1.018-0.456-1.018-1.018s0.455-1.018,1.018-1.018h3.444
				c0.562,0,1.018,0.456,1.018,1.018S9.337,19.749,8.774,19.749z"/>
		</g>
		<g>
			<path fill="#00619D" d="M10.479,22.682c-0.352,0-0.694-0.183-0.883-0.509L7.904,19.24c-0.28-0.487-0.113-1.109,0.373-1.39
				c0.485-0.282,1.109-0.115,1.391,0.373l1.692,2.933c0.28,0.487,0.113,1.109-0.373,1.39C10.827,22.638,10.652,22.682,10.479,22.682
				z"/>
		</g>
		<g>
			<path fill="#00619D" d="M13.74,22.704c-0.176,0-0.354-0.045-0.516-0.141c-0.484-0.286-0.646-0.909-0.36-1.394l1.748-2.967
				c0.285-0.485,0.91-0.646,1.394-0.36c0.484,0.286,0.646,0.909,0.36,1.394l-1.748,2.967C14.429,22.524,14.089,22.704,13.74,22.704z
				"/>
		</g>
		<g>
			<path fill="#00619D" d="M18.881,19.755c-0.003,0-0.006,0-0.009,0l-3.387-0.029c-0.562-0.005-1.014-0.464-1.009-1.026
				c0.005-0.559,0.459-1.009,1.018-1.009c0.003,0,0.006,0,0.009,0l3.387,0.029c0.562,0.005,1.014,0.464,1.009,1.026
				C19.894,19.305,19.439,19.755,18.881,19.755z"/>
		</g>
		<g>
			<path fill="#00619D" d="M20.629,16.881c-0.35,0-0.689-0.18-0.879-0.503l-1.741-2.972c-0.284-0.485-0.122-1.108,0.363-1.393
				c0.485-0.285,1.107-0.122,1.393,0.363l1.741,2.972c0.284,0.485,0.122,1.108-0.363,1.393
				C20.98,16.836,20.804,16.881,20.629,16.881z"/>
		</g>
		<g>
			<path fill="#00619D" d="M18.88,13.902c-0.171,0-0.343-0.043-0.502-0.133c-0.488-0.278-0.659-0.899-0.382-1.388l1.674-2.944
				c0.278-0.49,0.899-0.659,1.388-0.382c0.488,0.278,0.659,0.899,0.382,1.388l-1.674,2.944
				C19.578,13.717,19.234,13.902,18.88,13.902z"/>
		</g>
		<g>
			<path fill="#00619D" d="M5.413,13.91c-0.35,0-0.689-0.18-0.879-0.503l-1.74-2.971C2.51,9.95,2.673,9.327,3.157,9.042
				C3.644,8.76,4.265,8.921,4.55,9.406l1.74,2.971c0.284,0.485,0.121,1.109-0.363,1.393C5.765,13.864,5.588,13.91,5.413,13.91z"/>
		</g>
		<g>
			<path fill="#00619D" d="M3.741,16.862c-0.171,0-0.344-0.043-0.503-0.134C2.75,16.45,2.58,15.829,2.857,15.34l1.676-2.942
				c0.279-0.489,0.899-0.66,1.389-0.38c0.488,0.278,0.658,0.899,0.381,1.388l-1.676,2.942C4.438,16.677,4.095,16.862,3.741,16.862z"
				/>
		</g>
		<g>
			<path fill="#00619D" d="M8.803,8.106c-0.174,0-0.351-0.045-0.512-0.139C7.806,7.685,7.642,7.062,7.924,6.576L9.657,3.6
				c0.284-0.486,0.907-0.648,1.393-0.367c0.485,0.283,0.649,0.906,0.367,1.392L9.684,7.6C9.494,7.925,9.153,8.106,8.803,8.106z"/>
		</g>
		<g>
			<path fill="#00619D" d="M8.799,8.114c-0.001,0-0.002,0-0.003,0L5.409,8.104C4.847,8.102,4.393,7.645,4.395,7.083
				c0.002-0.561,0.457-1.014,1.018-1.014c0.001,0,0.002,0,0.003,0l3.387,0.011C9.364,6.081,9.818,6.538,9.816,7.1
				C9.814,7.661,9.359,8.114,8.799,8.114z"/>
		</g>
	</g>
	<g>
		<path fill="#00619D" d="M19.751,45.048c-0.715,2.068-2.972,3.164-5.04,2.449c-2.066-0.717-3.162-2.973-2.447-5.039
			c0.717-2.069,5.354-3.674,7.693-6.66C20.078,39.558,20.467,42.979,19.751,45.048z"/>
	</g>
	<g>
		<path fill="#00619D" d="M29.234,35.688c-0.559,1.612-2.317,2.467-3.93,1.908c-1.612-0.557-2.466-2.316-1.908-3.93
			c0.558-1.611,4.176-2.863,6-5.193C29.49,31.407,29.793,34.077,29.234,35.688z"/>
	</g>
	<g>
		<rect x="42.603" y="35.403" fill="#FFFFFF" width="12.745" height="3.93"/>
	</g>
	<g>
		<rect x="47.01" y="30.995" fill="#FFFFFF" width="3.93" height="12.745"/>
	</g>
	<rect x="201.586" y="8.343" fill="#FFFFFF" width="6.135" height="19.057"/>
	<rect x="195.126" y="14.806" fill="#FFFFFF" width="19.054" height="6.133"/>
</g>
</svg>
