<?xml version="1.0" encoding="utf-8"?>
<!-- Generator: Adobe Illustrator 16.2.1, SVG Export Plug-In . SVG Version: 6.00 Build 0)  -->
<!DOCTYPE svg PUBLIC "-//W3C//DTD SVG 1.1//EN" "http://www.w3.org/Graphics/SVG/1.1/DTD/svg11.dtd">
<svg version="1.1" xmlns="http://www.w3.org/2000/svg" xmlns:xlink="http://www.w3.org/1999/xlink" x="0px" y="0px"
	 width="244.684px" height="51.25px" viewBox="0 0 244.684 51.25" enable-background="new 0 0 244.684 51.25" xml:space="preserve">
<g id="Ebene_1">
	<g>
		<path fill="#00619D" d="M99.946,9.099l-4.05,3.792c-0.848-1.465-1.896-2.56-3.146-3.285c-1.249-0.725-2.556-1.088-3.921-1.088
			c-2.211,0-4.133,0.84-5.762,2.521c-1.631,1.68-2.445,3.662-2.445,5.945c0,2.427,0.814,4.484,2.445,6.172
			c1.629,1.688,3.594,2.531,5.892,2.531c1.249,0,2.452-0.316,3.608-0.948s2.086-1.817,2.789-3.555h-6.699v-5.515h13.055v3.662
			c0,1.881-0.646,3.903-1.939,6.064c-1.292,2.162-2.994,3.741-5.105,4.739c-2.111,0.999-4.243,1.497-6.397,1.497
			c-3.906,0-7.202-1.414-9.888-4.244c-2.686-2.829-4.028-6.326-4.028-10.491c0-3.949,1.382-7.324,4.147-10.125
			c2.764-2.801,6.092-4.201,9.984-4.201C93.455,2.572,97.275,4.748,99.946,9.099z"/>
		<path fill="#00619D" d="M106.387,2.959h6.053v22.188h8.338v6.096h-14.391V2.959z"/>
		<path fill="#00619D" d="M134.904,2.959h4.723l11.523,28.284h-6.135l-2.264-5.558h-10.855l-2.217,5.558h-6.103L134.904,2.959z
			 M137.268,12.222l-3.326,8.337h6.723L137.268,12.222z"/>
		<path fill="#00619D" d="M157.468,2.959h7.244l5.298,16.953l5.302-16.953h6.987l3.642,28.284h-5.808l-2.497-19.904l-6.225,19.904
			h-2.768l-6.389-20.077l-2.357,20.077h-5.903L157.468,2.959z"/>
		<path fill="#00619D" d="M189.451,17.091c0-4.179,1.382-7.629,4.147-10.351c2.764-2.722,6.042-4.083,9.833-4.083
			c4.193,0,7.662,1.368,10.405,4.104c2.742,2.736,4.114,6.193,4.114,10.372c0,4.15-1.357,7.597-4.071,10.34
			c-2.715,2.744-6.133,4.115-10.254,4.115c-4.122,0-7.515-1.364-10.179-4.093S189.451,21.299,189.451,17.091z M203.712,8.302
			c-2.369-0.043-4.279,0.775-5.729,2.456c-1.451,1.681-2.176,3.849-2.176,6.506c0,2.513,0.739,4.596,2.219,6.247
			c1.479,1.651,3.346,2.477,5.601,2.477c2.369,0,4.283-0.815,5.741-2.445c1.457-1.63,2.186-3.781,2.186-6.452
			c0-2.628-0.714-4.739-2.143-6.333C207.98,9.164,206.082,8.345,203.712,8.302z"/>
		<path fill="#00619D" d="M238.028,5.523l-3.791,4.158c-1.997-1.178-3.433-1.767-4.309-1.767c-0.675,0-1.257,0.255-1.745,0.765
			s-0.732,1.116-0.732,1.82c0,1.393,1.264,2.599,3.792,3.619c1.853,0.791,3.252,1.505,4.2,2.144c0.948,0.639,1.741,1.526,2.38,2.661
			c0.64,1.135,0.959,2.362,0.959,3.684c0,2.427-0.98,4.538-2.94,6.333c-1.96,1.795-4.276,2.693-6.947,2.693
			c-2.93,0-5.823-1.378-8.681-4.136l4.006-4.675c1.796,1.853,3.476,2.779,5.041,2.779c0.732,0,1.437-0.326,2.111-0.978
			c0.675-0.651,1.013-1.336,1.013-2.052c0-1.476-1.559-2.776-4.675-3.902c-1.781-0.65-3.045-1.258-3.791-1.825
			c-0.747-0.567-1.376-1.393-1.886-2.478c-0.51-1.084-0.765-2.193-0.765-3.328c0-2.513,0.819-4.552,2.456-6.118
			c1.638-1.565,3.777-2.348,6.42-2.348C233.274,2.572,235.902,3.556,238.028,5.523z"/>
		<path fill="#00619D" d="M78.742,40.582c0.014-0.882-0.131-1.659-1.185-1.659c-1.238,0-1.238,1.672-1.238,3.516
			c0,2.976,0.29,3.503,1.423,3.503c0.328,0,0.684-0.079,0.987-0.185V43.65h-1.08v-1.461h3.068v4.819
			c-0.54,0.105-1.896,0.316-2.687,0.316c-3.345,0-3.727-1.383-3.727-4.991c0-2.396,0.119-4.833,3.371-4.833
			c1.949,0,3.16,1.093,3.042,3.082H78.742z"/>
		<path fill="#00619D" d="M84.366,37.659v9.507H82.51v-9.507H84.366z"/>
		<path fill="#00619D" d="M91.057,45.928c0,0.408,0.053,0.83,0.092,1.238h-1.725l-0.08-0.882h-0.025
			c-0.396,0.685-0.936,1.014-1.738,1.014c-1.291,0-1.765-0.961-1.765-2.12c0-2.199,1.698-2.292,3.424-2.265v-0.514
			c0-0.566-0.079-0.974-0.751-0.974c-0.645,0-0.697,0.487-0.697,1.014h-1.818c0-0.803,0.251-1.317,0.686-1.62
			c0.422-0.316,1.027-0.435,1.738-0.435c2.357,0,2.66,1.014,2.66,2.226V45.928z M87.633,45.099c0,0.474,0.078,1.053,0.685,1.053
			c1.093,0,0.922-1.475,0.922-2.199C88.317,43.993,87.633,43.914,87.633,45.099z"/>
		<path fill="#00619D" d="M95.982,42.886c0-0.988-0.25-1.317-0.83-1.317c-0.79,0-0.855,0.698-0.855,2.081
			c0,2.028,0.171,2.462,0.855,2.462c0.58,0,0.855-0.526,0.855-1.396h1.857c0,1.804-0.975,2.581-2.713,2.581
			c-2.396,0-2.713-1.462-2.713-3.542c0-1.817,0.264-3.371,2.713-3.371c1.712,0,2.687,0.764,2.687,2.502H95.982z"/>
		<path fill="#00619D" d="M101.197,37.659v1.461h-1.856v-1.461H101.197z M101.197,47.166h-1.856v-6.65h1.856V47.166z"/>
		<path fill="#00619D" d="M104.556,44.137c0,0.79,0.026,1.975,0.843,1.975c0.658,0,0.79-0.632,0.79-1.185h1.884
			c-0.027,0.725-0.264,1.317-0.711,1.725c-0.436,0.408-1.094,0.646-1.963,0.646c-2.396,0-2.713-1.462-2.713-3.542
			c0-1.817,0.264-3.371,2.713-3.371c2.502,0,2.779,1.62,2.713,3.753H104.556z M106.254,43.097c0-0.646,0.027-1.567-0.855-1.567
			c-0.855,0-0.843,1.001-0.843,1.567H106.254z"/>
		<path fill="#00619D" d="M111.193,40.516v0.856h0.026c0.343-0.764,0.975-0.988,1.726-0.988v1.659
			c-1.633-0.105-1.66,0.843-1.66,1.501v3.621h-1.856v-6.65H111.193z"/>
		<path fill="#00619D" d="M116.791,47.166v-9.507h3.199l1.488,6.465h0.026l1.58-6.465h3.095v9.507h-1.936v-7.335h-0.026
			l-1.831,7.335h-1.896l-1.738-7.335h-0.025v7.335H116.791z"/>
		<path fill="#00619D" d="M127.551,43.755c0-1.817,0.264-3.371,2.713-3.371s2.712,1.554,2.712,3.371
			c0,2.081-0.315,3.542-2.712,3.542C127.866,47.298,127.551,45.836,127.551,43.755z M131.119,43.65c0-1.382-0.065-2.081-0.855-2.081
			s-0.856,0.698-0.856,2.081c0,2.028,0.171,2.462,0.856,2.462C130.948,46.112,131.119,45.678,131.119,43.65z"/>
		<path fill="#00619D" d="M136.15,41.188h0.026c0.369-0.592,0.869-0.803,1.567-0.803c0.882,0,1.659,0.527,1.659,1.449v5.333h-1.856
			v-4.583c0-0.593-0.105-1.054-0.698-1.054s-0.698,0.461-0.698,1.054v4.583h-1.856v-6.65h1.856V41.188z"/>
		<path fill="#00619D" d="M142.894,37.659v1.461h-1.856v-1.461H142.894z M142.894,47.166h-1.856v-6.65h1.856V47.166z"/>
		<path fill="#00619D" d="M143.79,40.516h0.75v-1.054l1.856-0.83v1.883h0.962v1.146h-0.962v3.556c0,0.5-0.013,0.83,0.593,0.83
			c0.119,0,0.237,0,0.329-0.026v1.146c-0.25,0.026-0.514,0.066-0.961,0.066c-1.606,0-1.817-1.067-1.817-1.475v-4.095h-0.75V40.516z"
			/>
		<path fill="#00619D" d="M148.043,43.755c0-1.817,0.264-3.371,2.713-3.371s2.713,1.554,2.713,3.371
			c0,2.081-0.316,3.542-2.713,3.542S148.043,45.836,148.043,43.755z M151.612,43.65c0-1.382-0.066-2.081-0.856-2.081
			s-0.855,0.698-0.855,2.081c0,2.028,0.171,2.462,0.855,2.462S151.612,45.678,151.612,43.65z"/>
		<path fill="#00619D" d="M156.551,40.516v0.856h0.026c0.343-0.764,0.975-0.988,1.725-0.988v1.659
			c-1.633-0.105-1.659,0.843-1.659,1.501v3.621h-1.856v-6.65H156.551z"/>
		<path fill="#00619D" d="M161.187,37.659v1.461h-1.856v-1.461H161.187z M161.187,47.166h-1.856v-6.65h1.856V47.166z"/>
		<path fill="#00619D" d="M164.689,41.188h0.026c0.369-0.592,0.869-0.803,1.567-0.803c0.882,0,1.659,0.527,1.659,1.449v5.333h-1.856
			v-4.583c0-0.593-0.105-1.054-0.698-1.054s-0.698,0.461-0.698,1.054v4.583h-1.856v-6.65h1.856V41.188z"/>
		<path fill="#00619D" d="M174.501,40.516v6.926c0,0.461,0.026,2.278-2.528,2.278c-1.383,0-2.567-0.355-2.607-1.975h1.817
			c0,0.276,0.039,0.513,0.158,0.671c0.118,0.171,0.329,0.263,0.619,0.263c0.461,0,0.685-0.435,0.685-1.106v-1.277h-0.026
			c-0.276,0.514-0.804,0.777-1.409,0.777c-2.041,0-1.949-1.87-1.949-3.371c0-1.461,0.026-3.318,1.962-3.318
			c0.659,0,1.226,0.29,1.488,0.909h0.026v-0.777H174.501z M171.881,45.928c0.671,0,0.764-0.698,0.764-2.107
			c0-1.462-0.066-2.292-0.751-2.292c-0.697,0-0.816,0.487-0.816,2.515C171.077,44.664,170.985,45.928,171.881,45.928z"/>
		<path fill="#00619D" d="M181.6,47.324c-2.462,0-2.923-1.449-2.817-3.095h1.988c0,0.909,0.039,1.672,1.133,1.672
			c0.671,0,1-0.435,1-1.08c0-1.712-4.003-1.817-4.003-4.648c0-1.488,0.711-2.673,3.134-2.673c1.937,0,2.897,0.869,2.766,2.857
			h-1.936c0-0.711-0.118-1.435-0.922-1.435c-0.646,0-1.027,0.355-1.027,1.014c0,1.804,4.004,1.646,4.004,4.635
			C184.919,47.034,183.114,47.324,181.6,47.324z"/>
		<path fill="#00619D" d="M185.656,40.516h1.844l0.909,5.004h0.026l1.277-5.004h1.922l1.172,5.004h0.026l1.001-5.004h1.778
			l-1.805,6.65h-1.949l-1.198-4.543h-0.026l-1.343,4.543h-1.976L185.656,40.516z"/>
		<path fill="#00619D" d="M198.51,37.659v1.461h-1.856v-1.461H198.51z M198.51,47.166h-1.856v-6.65h1.856V47.166z"/>
		<path fill="#00619D" d="M199.406,40.516h0.75v-1.054l1.856-0.83v1.883h0.962v1.146h-0.962v3.556c0,0.5-0.013,0.83,0.593,0.83
			c0.119,0,0.237,0,0.329-0.026v1.146c-0.25,0.026-0.514,0.066-0.961,0.066c-1.606,0-1.817-1.067-1.817-1.475v-4.095h-0.75V40.516z"
			/>
		<path fill="#00619D" d="M207.86,41.833l-2.647,4.148h2.687v1.185h-4.517v-1.317l2.607-4.148h-2.515v-1.185h4.385V41.833z"/>
		<path fill="#00619D" d="M210.652,44.137c0,0.79,0.026,1.975,0.843,1.975c0.658,0,0.79-0.632,0.79-1.185h1.883
			c-0.026,0.725-0.263,1.317-0.711,1.725c-0.435,0.408-1.093,0.646-1.962,0.646c-2.396,0-2.713-1.462-2.713-3.542
			c0-1.817,0.264-3.371,2.713-3.371c2.502,0,2.778,1.62,2.713,3.753H210.652z M212.352,43.097c0-0.646,0.026-1.567-0.856-1.567
			c-0.855,0-0.843,1.001-0.843,1.567H212.352z"/>
		<path fill="#00619D" d="M217.29,40.516v0.856h0.026c0.343-0.764,0.975-0.988,1.725-0.988v1.659
			c-1.633-0.105-1.659,0.843-1.659,1.501v3.621h-1.856v-6.65H217.29z"/>
		<path fill="#00619D" d="M221.926,37.659v9.507h-1.856v-9.507H221.926z"/>
		<path fill="#00619D" d="M228.616,45.928c0,0.408,0.053,0.83,0.092,1.238h-1.725l-0.079-0.882h-0.026
			c-0.396,0.685-0.936,1.014-1.738,1.014c-1.291,0-1.765-0.961-1.765-2.12c0-2.199,1.698-2.292,3.424-2.265v-0.514
			c0-0.566-0.079-0.974-0.751-0.974c-0.646,0-0.697,0.487-0.697,1.014h-1.817c0-0.803,0.25-1.317,0.685-1.62
			c0.421-0.316,1.027-0.435,1.738-0.435c2.356,0,2.66,1.014,2.66,2.226V45.928z M225.192,45.099c0,0.474,0.079,1.053,0.685,1.053
			c1.093,0,0.922-1.475,0.922-2.199C225.877,43.993,225.192,43.914,225.192,45.099z"/>
		<path fill="#00619D" d="M232.014,41.188h0.026c0.369-0.592,0.869-0.803,1.567-0.803c0.882,0,1.659,0.527,1.659,1.449v5.333h-1.856
			v-4.583c0-0.593-0.105-1.054-0.698-1.054s-0.698,0.461-0.698,1.054v4.583h-1.856v-6.65h1.856V41.188z"/>
		<path fill="#00619D" d="M240.061,47.166v-0.737h-0.026c-0.342,0.645-0.855,0.869-1.566,0.869c-1.923,0-1.857-2.133-1.857-3.503
			c0-1.343-0.053-3.411,1.817-3.411c0.672,0,1.133,0.198,1.515,0.764h0.026v-3.489h1.856v9.507H240.061z M239.969,43.782
			c0-1.33,0.013-2.252-0.751-2.252c-0.803,0-0.79,0.922-0.79,2.252c0,1.672,0.118,2.37,0.79,2.37
			C239.85,46.152,239.969,45.454,239.969,43.782z"/>
	</g>
	<g>
		<g>
			<path fill="#00619D" d="M190.288,16.997c0-3.949,1.306-7.209,3.917-9.781c2.613-2.572,5.713-3.857,9.296-3.857
				c3.963,0,7.237,1.292,9.832,3.877c2.593,2.584,3.887,5.851,3.887,9.802c0,3.921-1.281,7.178-3.849,9.77
				c-2.562,2.592-5.793,3.888-9.688,3.888c-3.896,0-7.103-1.289-9.62-3.867C191.548,24.251,190.288,20.973,190.288,16.997z"/>
		</g>
	</g>
</g>
<g id="Ebene_2">
	<g>
		<polygon fill="#00619D" points="4.025,47.705 3.751,47.553 1.803,47.553 1.803,46.825 5.422,40.28 9.247,33.167 23.773,23.761 
			26.073,13.715 30.851,11.207 31.66,6.567 36.569,1.978 38.188,3.71 33.859,7.756 32.985,12.764 28.142,15.307 25.869,25.228 
			11.046,34.826 7.503,41.415 4.174,47.437 4.174,47.553 4.109,47.553 		"/>
	</g>
	<g>
		<g>
			<polygon fill="#00619D" points="67.941,36.58 63.553,31.592 62.469,32.072 53.448,25.697 53.448,21.729 48.911,13.067 
				41.184,5.37 36.128,3.085 38.533,5.611 40.457,10.783 42.383,12.587 40.699,14.511 38.293,23.412 39.255,25.457 30.836,39.53 
				31.798,42.536 30.721,46.133 68.005,46.133 			"/>
			<path fill="#00619D" d="M69.198,47.319h-40.07l1.429-4.771l-1.013-3.167l8.369-13.991l-0.878-1.867l2.591-9.586l1.11-1.268
				l-1.293-1.21l-1.937-5.206l-2.237-2.35l1.347-1.897l5.252,2.373l8.009,7.978l4.757,9.081v3.646l7.97,5.633l1.265-0.561
				l5.256,5.974L69.198,47.319z M32.313,44.948h34.498l-0.053-7.917l-3.521-4.002l-0.903,0.4l-10.071-7.118V22.02l-4.317-8.241
				l-7.446-7.417l-0.507-0.229l1.479,3.977l2.559,2.397l-2.257,2.58l-2.222,8.216l1.046,2.222l-8.469,14.155l0.911,2.846
				L32.313,44.948z"/>
		</g>
	</g>
	<g>
		<g>
			<path fill="#00619D" d="M21.676,12.709H1.465c-0.562,0-1.017-0.455-1.017-1.017s0.455-1.017,1.017-1.017h20.211
				c0.562,0,1.017,0.455,1.017,1.017S22.237,12.709,21.676,12.709z"/>
		</g>
		<g>
			<path fill="#00619D" d="M6.517,21.461c-0.173,0-0.348-0.044-0.507-0.136c-0.486-0.281-0.653-0.902-0.372-1.389L15.744,2.432
				c0.279-0.487,0.903-0.652,1.388-0.372c0.486,0.281,0.653,0.902,0.372,1.389L7.397,20.953C7.21,21.279,6.868,21.461,6.517,21.461z
				"/>
		</g>
		<g>
			<path fill="#00619D" d="M16.625,21.461c-0.352,0-0.693-0.182-0.881-0.508L5.638,3.449C5.356,2.962,5.523,2.341,6.01,2.06
				c0.481-0.28,1.107-0.115,1.388,0.372l10.106,17.504c0.281,0.486,0.114,1.108-0.372,1.389
				C16.973,21.417,16.798,21.461,16.625,21.461z"/>
		</g>
		<g>
			<path fill="#00619D" d="M18.383,6.886h-3.439c-0.562,0-1.017-0.455-1.017-1.017s0.455-1.017,1.017-1.017h3.439
				c0.562,0,1.017,0.455,1.017,1.017S18.944,6.886,18.383,6.886z"/>
		</g>
		<g>
			<path fill="#00619D" d="M14.934,6.886c-0.352,0-0.693-0.182-0.881-0.508l-1.691-2.929c-0.281-0.486-0.114-1.108,0.371-1.389
				c0.484-0.28,1.108-0.115,1.389,0.372l1.691,2.929c0.281,0.486,0.114,1.108-0.371,1.389C15.281,6.842,15.106,6.886,14.934,6.886z"
				/>
		</g>
		<g>
			<path fill="#00619D" d="M8.199,18.532H4.76c-0.562,0-1.017-0.455-1.017-1.017s0.455-1.017,1.017-1.017h3.439
				c0.562,0,1.017,0.455,1.017,1.017S8.761,18.532,8.199,18.532z"/>
		</g>
		<g>
			<path fill="#00619D" d="M9.903,21.461c-0.352,0-0.693-0.182-0.882-0.508l-1.69-2.929c-0.28-0.486-0.113-1.108,0.373-1.389
				c0.488-0.281,1.108-0.113,1.389,0.372l1.69,2.929c0.28,0.486,0.113,1.108-0.373,1.389C10.25,21.417,10.075,21.461,9.903,21.461z"
				/>
		</g>
		<g>
			<path fill="#00619D" d="M13.159,21.484c-0.176,0-0.353-0.045-0.515-0.141c-0.484-0.285-0.646-0.908-0.36-1.392l1.746-2.964
				c0.285-0.484,0.908-0.644,1.392-0.36c0.484,0.285,0.646,0.908,0.36,1.392l-1.746,2.964
				C13.847,21.306,13.508,21.484,13.159,21.484z"/>
		</g>
		<g>
			<path fill="#00619D" d="M18.294,18.539c-0.003,0-0.006,0-0.009,0l-3.382-0.029c-0.562-0.005-1.013-0.464-1.008-1.025
				c0.005-0.559,0.459-1.008,1.017-1.008c0.003,0,0.006,0,0.009,0l3.382,0.029c0.562,0.005,1.013,0.464,1.008,1.025
				C19.306,18.09,18.852,18.539,18.294,18.539z"/>
		</g>
		<g>
			<path fill="#00619D" d="M20.04,15.667c-0.349,0-0.688-0.18-0.878-0.503l-1.738-2.967c-0.284-0.484-0.121-1.107,0.363-1.391
				c0.483-0.284,1.106-0.122,1.391,0.363l1.738,2.967c0.284,0.484,0.121,1.107-0.363,1.391
				C20.392,15.623,20.215,15.667,20.04,15.667z"/>
		</g>
		<g>
			<path fill="#00619D" d="M18.293,12.691c-0.17,0-0.343-0.043-0.502-0.133c-0.487-0.278-0.658-0.898-0.381-1.386l1.673-2.94
				c0.277-0.488,0.896-0.658,1.387-0.381c0.487,0.278,0.658,0.898,0.381,1.386l-1.673,2.94
				C18.99,12.507,18.646,12.691,18.293,12.691z"/>
		</g>
		<g>
			<path fill="#00619D" d="M4.843,12.7c-0.35,0-0.689-0.18-0.878-0.503L2.227,9.229C1.942,8.745,2.105,8.122,2.59,7.838
				C3.072,7.554,3.697,7.717,3.98,8.202l1.738,2.968c0.284,0.484,0.121,1.107-0.363,1.391C5.194,12.655,5.018,12.7,4.843,12.7z"/>
		</g>
		<g>
			<path fill="#00619D" d="M3.173,15.649c-0.171,0-0.343-0.043-0.502-0.133c-0.488-0.278-0.658-0.898-0.381-1.386l1.674-2.94
				c0.278-0.489,0.897-0.658,1.387-0.38c0.488,0.278,0.658,0.898,0.381,1.386l-1.674,2.94C3.87,15.465,3.526,15.649,3.173,15.649z"
				/>
		</g>
		<g>
			<path fill="#00619D" d="M8.228,6.903c-0.174,0-0.35-0.044-0.511-0.138C7.231,6.482,7.067,5.86,7.351,5.375l1.732-2.972
				c0.282-0.485,0.904-0.649,1.39-0.367s0.649,0.905,0.366,1.39L9.106,6.398C8.918,6.723,8.577,6.903,8.228,6.903z"/>
		</g>
		<g>
			<path fill="#00619D" d="M8.224,6.912c-0.001,0-0.002,0-0.004,0L4.838,6.9C4.276,6.898,3.823,6.442,3.825,5.88
				C3.827,5.32,4.282,4.867,4.842,4.867c0.001,0,0.002,0,0.004,0l3.382,0.012c0.561,0.002,1.015,0.458,1.013,1.02
				C9.238,6.459,8.783,6.912,8.224,6.912z"/>
		</g>
	</g>
	<g>
		<path fill="#00619D" d="M19.185,43.85c-0.715,2.068-2.972,3.164-5.04,2.449c-2.066-0.717-3.162-2.972-2.447-5.039
			c0.717-2.069,5.354-3.674,7.693-6.66C19.512,38.36,19.9,41.782,19.185,43.85z"/>
	</g>
	<g>
		<path fill="#00619D" d="M28.668,34.491c-0.559,1.612-2.317,2.467-3.93,1.909c-1.612-0.557-2.466-2.317-1.908-3.93
			c0.558-1.611,4.176-2.864,6-5.194C28.924,30.209,29.227,32.88,28.668,34.491z"/>
	</g>
	<g>
		<rect x="42.036" y="34.205" fill="#FFFFFF" width="12.745" height="3.93"/>
	</g>
	<g>
		<rect x="46.443" y="29.798" fill="#FFFFFF" width="3.93" height="12.745"/>
	</g>
	<rect x="200.687" y="7.51" fill="#FFFFFF" width="6.135" height="19.055"/>
	<rect x="194.227" y="13.971" fill="#FFFFFF" width="19.054" height="6.134"/>
</g>
</svg>
