<?xml version="1.0" encoding="utf-8"?>
<!-- Generator: Adobe Illustrator 16.2.1, SVG Export Plug-In . SVG Version: 6.00 Build 0)  -->
<!DOCTYPE svg PUBLIC "-//W3C//DTD SVG 1.1//EN" "http://www.w3.org/Graphics/SVG/1.1/DTD/svg11.dtd">
<svg version="1.1" xmlns="http://www.w3.org/2000/svg" xmlns:xlink="http://www.w3.org/1999/xlink" x="0px" y="0px" width="71.5px"
	 height="50.5px" viewBox="0 0 71.5 50.5" enable-background="new 0 0 71.5 50.5" xml:space="preserve">
<g id="Ebene_1">
</g>
<g id="Ebene_2">
	<g>
		<polygon fill="#00619D" points="4.828,49.183 4.554,49.031 2.605,49.031 2.605,48.304 6.225,41.758 10.05,34.645 24.576,25.239 
			26.876,15.193 31.653,12.686 32.463,8.045 37.372,3.456 38.991,5.188 34.662,9.235 33.788,14.242 28.944,16.786 26.672,26.706 
			11.849,36.304 8.306,42.894 4.977,48.915 4.977,49.031 4.912,49.031 		"/>
	</g>
	<g>
		<g>
			<polygon fill="#00619D" points="68.744,38.059 64.355,33.07 63.271,33.551 54.251,27.175 54.251,23.207 49.714,14.546 
				41.986,6.848 36.931,4.563 39.336,7.089 41.26,12.262 43.186,14.065 41.502,15.989 39.096,24.891 40.058,26.935 31.639,41.008 
				32.601,44.015 31.523,47.612 68.808,47.612 			"/>
			<path fill="#00619D" d="M70.001,48.797h-40.07l1.429-4.771l-1.013-3.167l8.369-13.991l-0.878-1.867l2.591-9.586l1.11-1.268
				l-1.293-1.21L38.31,7.73l-2.237-2.35l1.347-1.897l5.252,2.373l8.009,7.978l4.757,9.081v3.646l7.97,5.633l1.265-0.561l5.256,5.974
				L70.001,48.797z M33.116,46.426h34.498l-0.053-7.917l-3.521-4.002l-0.903,0.4l-10.071-7.118v-4.291l-4.317-8.241L41.302,7.84
				L40.795,7.61l1.479,3.977l2.559,2.397l-2.257,2.58l-2.222,8.216l1.046,2.222l-8.469,14.155l0.911,2.846L33.116,46.426z"/>
		</g>
	</g>
	<g>
		<g>
			<path fill="#00619D" d="M22.812,14.35H2.268c-0.57,0-1.033-0.462-1.033-1.033s0.463-1.033,1.033-1.033h20.545
				c0.57,0,1.033,0.462,1.033,1.033S23.383,14.35,22.812,14.35z"/>
		</g>
		<g>
			<path fill="#00619D" d="M7.403,23.247c-0.176,0-0.353-0.045-0.516-0.139c-0.494-0.286-0.664-0.917-0.378-1.412L16.782,3.903
				c0.285-0.495,0.916-0.664,1.411-0.378c0.494,0.286,0.664,0.917,0.378,1.412L8.299,22.729C8.107,23.061,7.761,23.247,7.403,23.247
				z"/>
		</g>
		<g>
			<path fill="#00619D" d="M17.678,23.247c-0.357,0-0.704-0.186-0.896-0.517L6.51,4.936C6.224,4.442,6.394,3.81,6.888,3.524
				c0.497-0.285,1.127-0.116,1.411,0.378l10.272,17.793c0.286,0.494,0.116,1.126-0.378,1.412
				C18.03,23.202,17.853,23.247,17.678,23.247z"/>
		</g>
		<g>
			<path fill="#00619D" d="M19.465,8.43h-3.496c-0.57,0-1.033-0.462-1.033-1.033s0.463-1.033,1.033-1.033h3.496
				c0.57,0,1.033,0.462,1.033,1.033S20.035,8.43,19.465,8.43z"/>
		</g>
		<g>
			<path fill="#00619D" d="M15.958,8.43c-0.357,0-0.704-0.186-0.896-0.517l-1.719-2.977c-0.286-0.494-0.116-1.126,0.378-1.412
				c0.496-0.285,1.126-0.116,1.411,0.378l1.719,2.977c0.286,0.494,0.116,1.126-0.378,1.412C16.311,8.385,16.133,8.43,15.958,8.43z"
				/>
		</g>
		<g>
			<path fill="#00619D" d="M9.113,20.268H5.617c-0.57,0-1.033-0.462-1.033-1.033s0.463-1.033,1.033-1.033h3.496
				c0.57,0,1.033,0.462,1.033,1.033S9.684,20.268,9.113,20.268z"/>
		</g>
		<g>
			<path fill="#00619D" d="M10.845,23.247c-0.357,0-0.704-0.186-0.896-0.517L8.23,19.751c-0.286-0.494-0.116-1.126,0.378-1.412
				c0.497-0.285,1.126-0.115,1.411,0.378l1.719,2.978c0.286,0.494,0.116,1.126-0.378,1.412
				C11.197,23.202,11.02,23.247,10.845,23.247z"/>
		</g>
		<g>
			<path fill="#00619D" d="M14.155,23.27c-0.179,0-0.359-0.046-0.523-0.144c-0.492-0.29-0.655-0.923-0.366-1.415l1.775-3.013
				c0.291-0.493,0.926-0.655,1.415-0.366c0.492,0.29,0.655,0.923,0.366,1.415l-1.775,3.013C14.854,23.087,14.509,23.27,14.155,23.27
				z"/>
		</g>
		<g>
			<path fill="#00619D" d="M19.375,20.275c-0.003,0-0.006,0-0.009,0l-3.439-0.03c-0.571-0.005-1.029-0.472-1.024-1.042
				c0.005-0.568,0.467-1.024,1.033-1.024c0.003,0,0.006,0,0.009,0l3.439,0.03c0.571,0.005,1.029,0.472,1.024,1.042
				C20.403,19.819,19.941,20.275,19.375,20.275z"/>
		</g>
		<g>
			<path fill="#00619D" d="M21.149,17.357c-0.354,0-0.7-0.183-0.893-0.511l-1.768-3.017c-0.288-0.493-0.123-1.125,0.369-1.414
				c0.492-0.288,1.125-0.123,1.414,0.369l1.768,3.017c0.288,0.493,0.123,1.125-0.369,1.414
				C21.507,17.311,21.327,17.357,21.149,17.357z"/>
		</g>
		<g>
			<path fill="#00619D" d="M19.374,14.331c-0.173,0-0.349-0.044-0.51-0.135c-0.496-0.282-0.67-0.913-0.388-1.409l1.699-2.989
				c0.282-0.497,0.912-0.67,1.409-0.388c0.496,0.282,0.67,0.913,0.388,1.409l-1.699,2.989
				C20.083,14.143,19.733,14.331,19.374,14.331z"/>
		</g>
		<g>
			<path fill="#00619D" d="M5.701,14.34c-0.354,0-0.7-0.183-0.893-0.512l-1.767-3.017c-0.288-0.492-0.123-1.125,0.369-1.414
				c0.492-0.287,1.126-0.124,1.414,0.37l1.767,3.017c0.288,0.492,0.123,1.125-0.369,1.414C6.059,14.294,5.879,14.34,5.701,14.34z"/>
		</g>
		<g>
			<path fill="#00619D" d="M4.004,17.338c-0.173,0-0.349-0.044-0.511-0.136c-0.495-0.283-0.669-0.914-0.386-1.409l1.702-2.988
				c0.283-0.496,0.913-0.669,1.409-0.387c0.495,0.283,0.669,0.914,0.386,1.409l-1.702,2.988C4.712,17.15,4.363,17.338,4.004,17.338z
				"/>
		</g>
		<g>
			<path fill="#00619D" d="M9.142,8.448c-0.177,0-0.355-0.045-0.52-0.141C8.129,8.02,7.963,7.387,8.25,6.894l1.762-3.021
				C10.3,3.38,10.933,3.213,11.425,3.5c0.493,0.288,0.659,0.92,0.372,1.413l-1.762,3.021C9.843,8.264,9.497,8.448,9.142,8.448z"/>
		</g>
		<g>
			<path fill="#00619D" d="M9.139,8.457c-0.001,0-0.002,0-0.004,0L5.696,8.445c-0.57-0.002-1.031-0.466-1.029-1.037
				c0.002-0.569,0.464-1.03,1.033-1.03c0.001,0,0.002,0,0.004,0L9.143,6.39c0.57,0.002,1.031,0.466,1.029,1.037
				C10.17,7.996,9.708,8.457,9.139,8.457z"/>
		</g>
	</g>
	<g>
		<path fill="#00619D" d="M19.987,45.329c-0.715,2.068-2.972,3.164-5.04,2.449c-2.066-0.717-3.162-2.972-2.447-5.039
			c0.717-2.069,5.354-3.674,7.693-6.66C20.314,39.838,20.703,43.261,19.987,45.329z"/>
	</g>
	<g>
		<path fill="#00619D" d="M29.471,35.969c-0.559,1.612-2.317,2.467-3.93,1.909c-1.612-0.557-2.466-2.317-1.908-3.93
			c0.558-1.611,4.176-2.864,6-5.194C29.727,31.688,30.029,34.358,29.471,35.969z"/>
	</g>
	<g>
		<rect x="42.839" y="35.684" fill="#FFFFFF" width="12.745" height="3.93"/>
	</g>
	<g>
		<rect x="47.246" y="31.276" fill="#FFFFFF" width="3.93" height="12.745"/>
	</g>
</g>
</svg>
