<svg id="Ebene_1" data-name="Ebene 1" xmlns="http://www.w3.org/2000/svg" viewBox="0 0 512 512"><defs><style>.cls-1{fill:#fff;fill-rule:evenodd;}</style></defs><title>layer-switch-inverted</title><path class="cls-1" d="M474.46,337.43,260.33,461.06a9.57,9.57,0,0,1-8.66,0L37.54,337.43c-2.39-1.37-2.39-3.62,0-5l44-25.42,20,11.55,140.1,80.89a29.53,29.53,0,0,0,28.66,0l140.1-80.89,20-11.55,44,25.42C476.85,333.81,476.85,336.06,474.46,337.43Z"/><path class="cls-1" d="M474.46,258.5l-44,25.42-20,11.55-20,11.54-130.1,75.12a9.57,9.57,0,0,1-8.66,0L121.57,307l-20-11.54-20-11.55-44-25.42c-2.39-1.37-2.39-3.62,0-5l44-25.42,20,11.55L129.92,256l40,23.1,71.75,41.42a29.53,29.53,0,0,0,28.66,0l71.75-41.42,40-23.1,28.36-16.37,20-11.55,44,25.42C476.85,254.88,476.85,257.12,474.46,258.5Z"/><path class="cls-1" d="M474.46,179.57l-44,25.42-20,11.55-20,11.54-28.36,16.37-40,23.1L260.33,303.2a9.64,9.64,0,0,1-8.66,0l-61.75-35.65-40-23.1-28.36-16.37-20-11.54L81.56,205l-44-25.42c-2.39-1.38-2.39-3.63,0-5L251.67,50.94a9.57,9.57,0,0,1,8.66,0L474.46,174.57C476.85,175.94,476.85,178.19,474.46,179.57Z"/></svg>