<svg id="Ebene_1" data-name="Ebene 1" xmlns="http://www.w3.org/2000/svg" width="70" height="70" viewBox="0 0 70 70"><defs><style>.cls-1{fill:brown;}.cls-2{opacity:0.1;}.cls-3{fill:#232323;}.cls-4{fill:#56cbdb;}</style></defs><title>pin-default</title><path class="cls-1" d="M35,0A13.54,13.54,0,0,0,21.48,13.53c0,8.4,12.49,20.68,13,21.25A.7.7,0,0,0,35,35a.67.67,0,0,0,.51-.22c.53-.57,13-12.63,13-21.25A13.55,13.55,0,0,0,35,0Zm0,18.78a5.26,5.26,0,1,1,5.26-5.26A5.27,5.27,0,0,1,35,18.78Z"/><g class="cls-2"><path d="M51.81,40c-1.31-2-15.59-4.79-16.25-4.92A3.15,3.15,0,0,0,35,35a1.78,1.78,0,0,0-.46,0c-.39.13-9,3-6.43,5,2.31,1.74,9,3.14,15,3.12S53,41.7,51.81,40Zm-7.23,0c.58.68-.94,1.23-3.4,1.23s-5.06-.54-5.82-1.21.76-1.23,3.39-1.23S44,39.31,44.58,40Z"/></g><path class="cls-3" d="M35,0A13.54,13.54,0,0,0,21.48,13.53c0,8.4,12.49,20.68,13,21.25A.7.7,0,0,0,35,35a.67.67,0,0,0,.51-.22c.53-.57,13-12.63,13-21.25A13.55,13.55,0,0,0,35,0Zm0,18.78a5.26,5.26,0,1,1,5.26-5.26A5.27,5.27,0,0,1,35,18.78Z"/><circle class="cls-4" cx="35" cy="13.52" r="5.27"/></svg>