<svg xmlns="http://www.w3.org/2000/svg" xmlns:xlink="http://www.w3.org/1999/xlink" version="1.1" x="0px" y="0px" width="77.5" height="62" viewBox="0 0 62 77.5" enable-background="new 0 0 62 62" xml:space="preserve"><path fill="red" d="M30.9899902,6c-10.6400146,0-19.3099976,8.6699829-19.3099976,19.3299561  c0,10.3800049,17.8300171,29.5400391,18.5800171,30.3500366C30.4500122,55.8900146,30.7199707,56,30.9899902,56  c0.2799683,0,0.5499878-0.1099854,0.7299805-0.3200073c0.7600098-0.8099976,18.6000366-19.9700317,18.6000366-30.3500366  C50.3200073,14.6699829,41.6499634,6,30.9899902,6z M31,32.8299561c-4.1400146,0-7.5100098-3.3699951-7.5100098-7.5099487  c0-4.1400146,3.3699951-7.5200195,7.5100098-7.5200195c4.1499634,0,7.5199585,3.3800049,7.5199585,7.5200195  C38.5199585,29.4599609,35.1499634,32.8299561,31,32.8299561z"/></svg>