<?xml version="1.0" encoding="utf-8"?>
<!-- Generator: Adobe Illustrator 23.0.1, SVG Export Plug-In . SVG Version: 6.00 Build 0)  -->
<svg version="1.1" id="Ebene_1" xmlns="http://www.w3.org/2000/svg" xmlns:xlink="http://www.w3.org/1999/xlink" x="0px" y="0px"
	 viewBox="0 0 70 70" style="enable-background:new 0 0 70 70;" xml:space="preserve">
<style type="text/css">
	.st0{fill:#A52A2A;}
	.st1{opacity:0.1;}
	.st2{fill:#A12B2E;}
	.st3{fill:#FFFFFF;}
</style>
<title>pin-active</title>
<path class="st0" d="M35,0c-7.5,0-13.5,6.1-13.5,13.5c0,8.4,12.5,20.7,13,21.2c0.1,0.1,0.3,0.2,0.5,0.2c0.2,0,0.4-0.1,0.5-0.2
	c0.5-0.6,13-12.6,13-21.2C48.5,6.1,42.5,0,35,0z M35,18.8c-2.9,0-5.3-2.4-5.3-5.3s2.4-5.3,5.3-5.3s5.3,2.4,5.3,5.3
	C40.3,16.4,37.9,18.8,35,18.8z"/>
<g class="st1">
	<path d="M51.8,40c-1.3-2-15.6-4.8-16.2-4.9C35.4,35,35.2,35,35,35c-0.2,0-0.3,0-0.5,0c-0.4,0.1-9,3-6.4,5c2.3,1.7,9,3.1,15,3.1
		S53,41.7,51.8,40z M44.6,40c0.6,0.7-0.9,1.2-3.4,1.2s-5.1-0.5-5.8-1.2s0.8-1.2,3.4-1.2S44,39.3,44.6,40z"/>
</g>
<path class="st2" d="M35,0c-7.5,0-13.5,6.1-13.5,13.5c0,8.4,12.5,20.7,13,21.2c0.1,0.1,0.3,0.2,0.5,0.2c0.2,0,0.4-0.1,0.5-0.2
	c0.5-0.6,13-12.6,13-21.2C48.5,6.1,42.5,0,35,0z M35,18.8c-2.9,0-5.3-2.4-5.3-5.3s2.4-5.3,5.3-5.3s5.3,2.4,5.3,5.3
	C40.3,16.4,37.9,18.8,35,18.8z"/>
<circle class="st3" cx="35" cy="13.5" r="5.3"/>
</svg>
