<svg id="Ebene_1" data-name="Ebene 1" xmlns="http://www.w3.org/2000/svg" width="20" height="20" viewBox="0 0 20 20"><defs><style>.cls-1{opacity:0.32;}.cls-2,.cls-3{fill:#b0272d;}.cls-3{stroke:#b3b3b3;stroke-miterlimit:10;stroke-width:0.25px;}</style></defs><title>pin-active</title><g class="cls-1"><path class="cls-2" d="M14.71,15.35a7.24,7.24,0,0,1-4.43-1.88A2.78,2.78,0,0,1,10,10s4.62,1.88,5.82,3.45c.8,1,.3,1.89-1.11,1.9m-.18-1.9a3.45,3.45,0,0,0-2.37-1c-.85,0-1.12.45-.59,1a3.7,3.7,0,0,0,2.37,1C14.72,14.47,15,14,14.53,13.45Z"/></g><path class="cls-3" d="M10,1a3.18,3.18,0,0,1,3.18,3.18C13.18,6.82,10,10,10,10S6.82,6.82,6.82,4.18A3.18,3.18,0,0,1,10,1m0,1.48a1.7,1.7,0,1,0,1.7,1.7A1.7,1.7,0,0,0,10,2.48Z"/></svg>