<?xml version="1.0" encoding="UTF-8"?>
<!DOCTYPE svg PUBLIC "-//W3C//DTD SVG 1.1//EN" "http://www.w3.org/Graphics/SVG/1.1/DTD/svg11.dtd">
<svg enable-background="new 0 0 402 402" id="Layer_1" version="1.1" viewBox="0 0 402 402" xml:space="preserve" xmlns="http://www.w3.org/2000/svg" xmlns:xlink="http://www.w3.org/1999/xlink"><g><path d="M343.9,306.4v-14l1.8-11.2l1-2.4l-27.5,2v-9l12.3-8.9l-48.1-9.6v-6.8l8.9-8.2h-8.9v-5.9l-22.4,5.9v-5.9   l4.7-9.1h-18.8v-5.6l9.4-5.9H141.5v8.7l-15.3,9.9l8.8,13.2v8.6H93.2l-0.5,3.7v11.4l-6.3,1.9L88,273v15.1l-32.6,15.6l6.1,13.5v15.7   l-5.7,5.7C92.2,377,143.8,401,201,401c70.7,0,132.8-36.7,168.3-92L343.9,306.4z" fill="#36B5C1"/><polygon fill="#3EC0C6" points="141.5,220.5 141.5,233.2 128.4,240.7 135,252.2 134.3,260.9 89.8,260.9 92.7,267.4 92.7,280.7    83,284.1 88,288.1 88,300.7 52.3,317.1 61.5,332.8 43.2,317.1 48.5,278.7 86.7,234.5 109,219.3  "/><path d="M311,177.7l23.1-126C298.7,20.2,252.1,1,201,1C129.3,1,66.5,38.7,31.2,95.3l52.7,94.1l57.7,22.4h114.7   L311,177.7z" fill="#8DD9FF"/><path d="M170.8,189.5c7.1,4,13.7,10.3,21.9,10.3c4.5,0,8.9-2.1,13.4-2.2c6.4-0.2,12.3,3.4,18.6,4.6   c13.4,2.6,26.3-5.7,37.5-13.5c3.6-2.6,7.5-5.4,9.2-9.5c0.7-1.7,1-3.7,2.2-5.2c1.4-1.8,3.6-2.6,5.6-3.6c8.7-4.3,13.6-13.6,19.5-21.3   c5.9-7.6,13.2-13.8,21.1-19.3L334,51.7C298.7,20.2,252.1,1,201,1C129.3,1,66.5,38.7,31.2,95.3l35,62.6c19.7,9.9,40,19.2,61.8,22.5   C142.5,182.6,158,182.4,170.8,189.5z" fill="#8DD9FF"/><path d="M298.7,149.2c-6,7.7-10.8,16.9-19.5,21.3c-2,1-4.3,1.8-5.6,3.6c-1.1,1.5-1.5,3.4-2.2,5.2   c-1.7,4.1-5.5,6.9-9.2,9.5c-11.2,7.9-24,16.1-37.5,13.5c-6.3-1.2-12.2-4.8-18.6-4.6c-4.5,0.1-8.9,2.2-13.4,2.2   c-8.2,0-14.7-6.3-21.9-10.3c-12.8-7.2-28.3-6.9-42.8-9.1c-21.7-3.3-42.1-12.6-61.8-22.5l17.6,31.5l57.7,22.4h114.7l54.7-34.1   l8.7-47.8C311.8,135.4,304.6,141.6,298.7,149.2z" fill="#F1FCF6" opacity="0.5"/><path d="M127.1,201.4c-1.4-10.9-5.7-53.3-7.6-55.3v0c0,0,0,0,0,0c0,0,0,0,0,0v0c-1.9,2-6.3,44.4-7.6,55.3   c-1.4,10.9,7.5,10.1,7.6,10.1C119.6,211.5,128.5,212.3,127.1,201.4z" fill="#027C98"/><path d="M145.9,203.9c-1-8.2-4.3-40.1-5.7-41.6v0c0,0,0,0,0,0c0,0,0,0,0,0v0c-1.4,1.5-4.7,33.4-5.7,41.6   c-1,8.2,5.7,7.6,5.7,7.6C140.2,211.5,146.9,212.1,145.9,203.9z" fill="#027C98"/><path d="M289.1,195.8c-1-8.2-4.3-40.1-5.7-41.6v0c0,0,0,0,0,0c0,0,0,0,0,0v0c-1.4,1.5-4.7,33.4-5.7,41.6   c-1,8.2,5.7,7.6,5.7,7.6C283.4,203.4,290.1,203.9,289.1,195.8z" fill="#027C98"/><path d="M263.5,208.1c-1-8.2-4.3-40.1-5.7-41.6v0c0,0,0,0,0,0c0,0,0,0,0,0v0c-1.4,1.5-4.7,33.4-5.7,41.6   c-1,8.2,5.7,7.6,5.7,7.6C257.8,215.7,264.5,216.2,263.5,208.1z" fill="#027C98"/><polygon fill="#91BEC3" points="119.5,267.4 119.5,273.8 113.3,277.3 98.4,284.1 93.2,278.4 93.2,271.8 111,269.3  "/><polygon fill="#91BEC3" points="148.2,291.3 148.2,303.7 150,306.5 150,312.6 141.9,312.6 138.9,309.2 137.5,303.9 137.5,296.3     "/><polygon fill="#91BEC3" points="166.3,273.5 166.3,278.1 147.7,285.1 147.7,293.9 136.4,293.9 134.3,284.5 134.3,275.1  "/><polygon fill="#91BEC3" points="174,254.5 174,258.9 160.9,262.6 155.8,259.4 155.8,253.3 163.8,250.9 170.3,245.1 170.3,253.8     "/><polygon fill="#91BEC3" points="173.1,232.4 173.1,236.2 166.3,236.2 173.1,238.3 173.1,242.1 164.5,245.6 151.5,240 151.5,235.3    155.5,228.7 153.4,227.8 153.4,223.3  "/><polygon fill="#91BEC3" points="208.2,363.5 208.2,372.7 162.6,381.1 153.4,362.7 153.4,349.3  "/><polygon fill="#91BEC3" points="266.3,350.5 266.3,362.7 204.7,350.5 204.7,338.5 239.6,327.8  "/><path d="M49.7,291.2L88,273L82.4,260l10.3-4.1l1.8-12.4H135l-12.9-19.4l19.4-12.4l-57.7-22.4L31.2,95.3   C12.1,126,1,162.2,1,201c0,46.3,15.7,88.9,42.2,122.8l18.3-6.7L49.7,291.2z" fill="#F1FCF6"/><path d="M334,51.7l-23.1,126l-64.1,40h21.8l-7.6,14.7l30.6-9.4l-8.2,9.4h15.3l-15.3,14.1l55.3,11.2l-19.4,14.1   l31.8-3.5l-5.3,12.9l-1.8,11.2l32.8,4.1c15.5-28.4,24.2-60.9,24.2-95.5C401,141.6,375.1,88.3,334,51.7z" fill="#F1FCF6"/><path d="M317.2,219.3l53.6,21.4l-59.5-7c0,0,15-1.1,12.6-3.8c-2.4-2.7-26,0-26,0L317.2,219.3z" fill="#D4EDEF"/><polygon fill="#D4EDEF" points="280.2,209.6 297.9,195.7 312.9,209.6 280.2,219.3 296.6,207.5  "/><polygon fill="#D4EDEF" points="347.2,257.3 360.1,248.8 386.3,253 370.8,270.2 366.8,256.8 340.5,264.3  "/><polygon fill="none" points="343.9,292.4 352.5,287.5 352.5,278.4 346.7,278.8 345.7,281.2  "/><polygon fill="none" points="297.9,238.3 292.2,238.3 283.3,246.5  "/><polygon fill="none" points="334,263.4 331.5,262.9 319.2,271.8  "/><polygon fill="none" points="271.6,223.3 265.7,223.3 261,232.4  "/><polygon fill="#91BEC3" points="265.7,223.3 268.6,217.7 246.8,217.7 246.8,223.3  "/><polygon fill="#91BEC3" points="292.2,238.3 298.6,232.4 283.3,232.4 283.3,238.3  "/><path d="M343.9,292.4v14l25.4,2.6c2.6-4.1,5.1-8.2,7.4-12.5L343.9,292.4z" fill="#91BEC3"/><polygon fill="#91BEC3" points="331.5,262.9 338.6,257.7 283.3,246.5 283.3,253.3  "/><polygon fill="#91BEC3" points="283.3,232.4 291.6,223 261,232.4 261,238.3  "/><polygon fill="#91BEC3" points="346.7,278.8 351,268.3 319.2,271.8 319.2,280.8  "/><polygon fill="none" points="86.4,252.2 92.7,255.9 93.2,252.2  "/><polygon fill="none" points="49.6,306.4 61.5,317.1 55.4,303.6  "/><polygon fill="none" points="121.8,233.2 135,243.6 126.2,230.4  "/><polygon fill="none" points="78.1,271.8 88,273 86.4,269.3  "/><path d="M61.5,317.1l-18.3,6.7c4,5.1,8.2,10,12.6,14.7l5.7-5.7V317.1z" fill="#91BEC3"/><polygon fill="#91BEC3" points="141.5,211.8 122.1,224.1 126.2,230.4 141.5,220.5  "/><polygon fill="#91BEC3" points="135,243.6 94.4,243.6 93.2,252.2 135,252.2  "/><polygon fill="#91BEC3" points="92.7,255.9 82.4,260 86.4,269.3 92.7,267.4  "/><polygon fill="#91BEC3" points="88,273 49.7,291.2 55.4,303.6 88,288.1  "/><polygon fill="#73E6E9" points="142.9,239.2 153.4,262.4 115.2,265.2 146.8,258.2  "/><polygon fill="#73E6E9" points="71.3,313.3 90.2,305.1 88.6,297.6 102.2,292.4 93,299.8 95.9,308.6  "/><path d="M49.6,235.3l-22.8-39.6c0,0,25.4,10.6,22.8,8.8c-2.6-1.8-31.4-53.1-31.4-53.1l6.3-9.4l25.1,36.9l-18.4-36.9   l40.1,48.5l-45.1-86.6C10.2,132.5,1,165.7,1,201c0,22.6,3.7,44.2,10.6,64.5c7.7,4.9,19.5,12.9,19.5,12.9l-13.7-22.5   c0,0,12.6,8.9,13.7,7c1.1-2-21-51.1-21-51.1l4.9-21.4L49.6,235.3z" fill="#D4EDEF"/><polygon fill="#D4EDEF" points="106.2,221.4 118.9,211.8 105.5,207.5 103.2,215.4 75.4,203.4 95.3,221.4 86.4,230.6 55.5,209.6    74.9,237 64.2,246.5 23.5,219.3 61.5,254.7 68.9,267.4 43.2,280.8 74,268.3 68.9,254.1 78.1,240.7 97.6,233.2 122.1,238.3  "/><polygon fill="#F1FCF6" points="253.7,300.7 221.2,306.4 204.7,338.5 266.3,350.5 268.6,317.1  "/><polygon fill="#F1FCF6" points="187.5,334.4 153.4,349.3 164.5,370.4 208.2,363.5 201.3,344  "/><path d="M153.4,223.3H170l3.1,9.1l-8.3,0.8l8.3,5.1l-8.3,2.4l-13.2-5.4c0,0,1.3-7.3,1.9-7.5   c0.6-0.2,2.4-1.5,2.4-1.5L153.4,223.3z" fill="#F1FCF6"/><path d="M154,272.2l12.3,1.2l-10.4,2.9l-9.3,3.5v9.1c0,0-9.2,0.6-9.1,0c0.2-0.6-3.2-13.8-3.2-13.8l9.7-1.7   L154,272.2z" fill="#F1FCF6"/><polygon fill="#F1FCF6" points="110.3,267.4 119.5,267.4 110.3,273 98.9,278.4 93.2,271.8 96.4,268.3 100.7,265.2  "/><polygon fill="#F1FCF6" points="159.2,242.1 170.3,245.1 168.1,250.7 174,254.5 160.4,258 155.8,253.3 157.7,246.4  "/><polygon fill="#F1FCF6" points="142.6,291.3 148.2,291.3 145.8,296.3 150,306.5 142.6,306.5 139.2,303.3 138,296.3  "/><path d="M85,38.1c7.2,57.8,56.4,102.5,116.1,102.5c59.7,0,108.9-44.6,116.1-102.3C284.5,14.8,244.4,1,201,1   C157.7,1,117.7,14.8,85,38.1z" fill="#9CE8FF"/><path d="M120.2,18c-0.1,1.8-0.2,3.7-0.2,5.5c0,44.8,36.3,81.1,81.1,81.1c44.8,0,81.1-36.3,81.1-81.1   c0-1.8-0.1-3.6-0.2-5.4C257.3,7.1,229.9,1,201,1C172.2,1,144.9,7.1,120.2,18z" fill="#B8EBFF"/><path d="M156.7,5.9c-2.2,5.5-3.4,11.4-3.4,17.6c0,26.4,21.4,47.7,47.7,47.7c26.4,0,47.7-21.4,47.7-47.7   c0-6.2-1.2-12.1-3.3-17.6c-14.3-3.3-29.2-5-44.5-5C185.8,1,171,2.7,156.7,5.9z" fill="#F1FCF6"/><path d="M206.8,221.1c-6.3,1-12.6,2-18.8,3c4.2,1.7,8.6,2.7,13.1,2.8c-4.2,3.6-9.9,4.8-15.3,5.8   c7.2,1,14.4,1.9,21.6,2.9c-7.3,1.1-14.5,2.3-21.8,3.4c4.8,0,9.6,1.6,13.5,4.5c-6.7,0.4-13.3,2-19.4,4.7c9,2.3,18,4.6,27,6.9   c-9.3,3.2-18.6,6.5-28,9.7c-1.3,0.4-2.7,1-3.2,2.2c-1.2,2.8,2.9,4.6,5.9,4.9c10.5,0.8,20.9,1.6,31.4,2.4c-13.1,4.2-26.6,7.2-40.3,9   c-3.7,0.5-8.4,2-8.4,5.7c0,3.8,5.1,5.1,8.9,5.2c30.2,0.8,60.3,0.9,90.5,0.1c-9.6-5.8-21.3-6.7-32.5-6.2c-11.2,0.5-22.4,2.3-33.5,1   c10-10.5,28.7-6.5,39.9-15.7c-12-1.1-24.1-2.1-36.1-3.2c-1.8-0.2-4-0.6-4.5-2.3c-0.8-2.5,2.7-4.1,5.3-4.4c8.7-1.1,17.3-2.2,26-3.4   c5.5-0.7,12.2-2.6,13.1-8c-13.1-2.8-26.4-4.1-39.8-4.1c-0.9-1.7,0.3-3.9,2-4.7c1.7-0.8,3.7-0.7,5.6-0.6c9.3,0.4,19-0.6,26.9-5.4   c-6.4-2.5-13.3-3.8-20.2-3.8c-2.3,0-4.7,0.1-6.7-0.8c-2.1-0.9-3.8-3.2-3.1-5.4c4.1,0.2,8.2-0.4,12.1-1.8c-3.3-0.7-6.7-1.5-10-2.2" fill="#73E6E9" opacity="0.3"/><path d="M345.3,62.6l-18.7,108.3l24.4-67.1l-7.1,45.6l7.1,4.9l9.4-29.9l-12.1,66.7l21.1-24.6l-16.9,51.2l31.7-63.5   l2.2,16.6l-6.8,10.9l-16.1,29.7l5.9,0.3l-5.9,16.7h5.9l22.7-37.4l-15.3,49.6l15.3-25l-5.7,29.9l12.1-12.5   c1.7-10.4,2.6-21.2,2.6-32.1C401,147.3,379.8,98.5,345.3,62.6z" fill="#D4EDEF"/></g></svg>